<svg width="286" height="59" viewBox="0 0 286 59" fill="none" xmlns="http://www.w3.org/2000/svg">
<g clip-path="url(#clip0_227_352)">
<path d="M54.504 13.8629C35.6227 11.6275 30.2507 27.8997 27.7999 36.2853C27.5928 36.9939 28.0756 37.7133 28.8087 37.8001L29.0934 37.8338C29.659 37.9008 30.1886 37.556 30.3965 37.0257C31.853 33.3105 34.2494 31.4422 37.5867 31.42C42.9867 31.3849 47.5289 27.2013 49.3318 23.3678L47.4938 21.8012L48.9816 20.6284C50.4694 19.4556 52.0413 17.6183 54.504 13.8629Z" fill="white"/>
</g>
<path d="M27.2837 38.8774C22.9031 37.2845 18.7216 37.3642 17.9251 42.0633C17.2366 46.1254 30.4696 40.072 31.6643 47.4395C32.3553 51.7007 27.0846 51.183 16.5313 48.1165C9.63709 46.1133 4.51777 47.0546 1 48.1165" stroke="white" stroke-width="1.59295" stroke-linecap="round"/>
<path d="M76.4342 47V17.7105H80.3026V47H76.4342ZM72.2105 47C71.9736 47 71.8552 46.8684 71.8552 46.6053V46.0921C71.8552 45.8289 71.9868 45.6842 72.2499 45.6579L75.6447 45.0658C75.9605 45.0132 76.171 44.9211 76.2763 44.7895C76.3815 44.6316 76.4342 44.3947 76.4342 44.0789V38.5132H80.3026V44.1184C80.3026 44.4342 80.3552 44.6579 80.4605 44.7895C80.5921 44.9211 80.8157 45.0132 81.1315 45.0658L84.6447 45.6579C84.8815 45.7368 85 45.8947 85 46.1316V46.6447C85 46.8816 84.8684 47 84.6052 47H72.2105ZM71.8552 18.1053C71.8552 17.8421 71.9736 17.7105 72.2105 17.7105H84.6052C84.8684 17.7105 85 17.8289 85 18.0658V18.5789C85 18.8158 84.8815 18.9737 84.6447 19.0526L81.1315 19.6447C80.8157 19.6974 80.5921 19.7895 80.4605 19.921C80.3552 20.0526 80.3026 20.2763 80.3026 20.5921V26.1974H76.4342V20.6316C76.4342 20.3158 76.3815 20.0921 76.2763 19.9605C76.171 19.8026 75.9605 19.6974 75.6447 19.6447L72.2499 19.0526C71.9868 19.0263 71.8552 18.8816 71.8552 18.6184V18.1053ZM105.302 34.1711C105.302 32.8816 104.973 31.9079 104.315 31.25C103.657 30.5658 102.684 30.2237 101.394 30.2237C100.263 30.2237 99.0915 30.5263 97.881 31.1316C96.6705 31.7105 95.5389 32.5263 94.4863 33.5789L94.131 32.6316C94.8415 31.5789 95.6836 30.6579 96.6573 29.8684C97.631 29.0526 98.6705 28.4211 99.7758 27.9737C100.881 27.5 101.986 27.2632 103.092 27.2632C105.039 27.2632 106.499 27.8026 107.473 28.8816C108.447 29.9605 108.934 31.5658 108.934 33.6974V47H105.302V34.1711ZM91.21 47V34.5263H94.8415V47H91.21ZM88.8415 47C88.6047 47 88.4863 46.8684 88.4863 46.6053V46.2105C88.4863 45.9474 88.6179 45.8026 88.881 45.7763L90.4205 45.4211C90.7889 45.3421 91.0126 45.25 91.0915 45.1447C91.1705 45.0395 91.21 44.8026 91.21 44.4342V39.8947H94.8415V44.4737C94.8415 44.8158 94.881 45.0395 94.96 45.1447C95.0652 45.25 95.3021 45.3289 95.6705 45.3816L98.1179 45.8158C98.3547 45.8421 98.4731 45.9868 98.4731 46.25V46.6447C98.4731 46.8816 98.3415 47 98.0784 47H88.8415ZM102.934 47C102.697 47 102.578 46.8684 102.578 46.6053V46.2105C102.578 45.9474 102.71 45.8026 102.973 45.7763L104.513 45.4211C104.881 45.3421 105.105 45.25 105.184 45.1447C105.263 45.0395 105.302 44.8026 105.302 44.4342V39.8947H108.934V44.4737C108.934 44.8158 108.973 45.0395 109.052 45.1447C109.157 45.25 109.394 45.3289 109.763 45.3816L112.21 45.8158C112.447 45.8421 112.565 45.9868 112.565 46.25V46.6447C112.565 46.8816 112.434 47 112.17 47H102.934ZM91.21 34.5263V28.7632L91.9205 29.9474L88.5258 29.3947C88.2889 29.3684 88.1705 29.2237 88.1705 28.9605V28.4868C88.1705 28.2763 88.3021 28.1316 88.5652 28.0526L93.5784 27.3026C93.9468 27.25 94.21 27.2763 94.3679 27.3816C94.5258 27.4605 94.6047 27.6711 94.6047 28.0132V31.9211L94.8415 32.5921V34.5263H91.21ZM117.171 47V24.5395H120.803V47H117.171ZM131.224 34.1711C131.224 32.8816 130.895 31.9079 130.237 31.25C129.579 30.5658 128.606 30.2237 127.316 30.2237C126.211 30.2237 125.053 30.5132 123.842 31.0921C122.658 31.6711 121.527 32.5 120.448 33.5789L120.132 32.6316C120.79 31.6053 121.606 30.6842 122.579 29.8684C123.579 29.0526 124.645 28.4211 125.777 27.9737C126.908 27.5 127.987 27.2632 129.013 27.2632C130.961 27.2632 132.421 27.8026 133.395 28.8816C134.369 29.9605 134.856 31.5658 134.856 33.6974V47H131.224V34.1711ZM114.803 47C114.566 47 114.448 46.8684 114.448 46.6053V46.2105C114.448 45.9474 114.579 45.8026 114.842 45.7763L116.382 45.4211C116.75 45.3421 116.974 45.25 117.053 45.1447C117.132 45.0395 117.171 44.8026 117.171 44.4342V39.8947H120.803V44.4737C120.803 44.8158 120.842 45.0395 120.921 45.1447C121.027 45.25 121.263 45.3289 121.632 45.3816L124.079 45.8158C124.316 45.8421 124.434 45.9868 124.434 46.25V46.6447C124.434 46.8816 124.303 47 124.04 47H114.803ZM117.171 24.5789V18.8158L117.882 20L114.487 19.4474C114.25 19.421 114.132 19.2763 114.132 19.0132V18.5395C114.132 18.3026 114.263 18.1711 114.527 18.1447L119.777 17.3553C120.145 17.3026 120.408 17.3289 120.566 17.4342C120.724 17.5132 120.803 17.7237 120.803 18.0658V24.5789H117.171ZM128.856 47C128.619 47 128.5 46.8684 128.5 46.6053V46.2105C128.5 45.9474 128.632 45.8026 128.895 45.7763L130.434 45.4211C130.803 45.3421 131.027 45.25 131.106 45.1447C131.184 45.0395 131.224 44.8026 131.224 44.4342V39.8947H134.856V44.4737C134.856 44.8158 134.895 45.0395 134.974 45.1447C135.079 45.25 135.316 45.3289 135.684 45.3816L138.132 45.8158C138.369 45.8421 138.487 45.9868 138.487 46.25V46.6447C138.487 46.8816 138.356 47 138.092 47H128.856ZM150.575 47.3158C148.864 47.3158 147.299 46.9211 145.878 46.1316C144.457 45.3158 143.325 44.1579 142.483 42.6579C141.667 41.1316 141.259 39.3026 141.259 37.1711C141.259 35.0132 141.693 33.2105 142.562 31.7632C143.43 30.2895 144.588 29.1711 146.036 28.4079C147.483 27.6447 149.075 27.2632 150.812 27.2632C152.286 27.2632 153.628 27.6184 154.838 28.3289C156.075 29.0132 157.062 30 157.799 31.2895C158.536 32.5789 158.904 34.1184 158.904 35.9079C158.904 36.0132 158.904 36.1447 158.904 36.3026C158.904 36.4605 158.891 36.6053 158.864 36.7368C158.786 36.9737 158.628 37.0921 158.391 37.0921H144.378V35.2763H156.496L155.588 36.1447C155.588 36.0132 155.588 35.8947 155.588 35.7895C155.588 35.6579 155.588 35.5395 155.588 35.4342C155.588 34.2763 155.364 33.25 154.917 32.3553C154.47 31.4605 153.851 30.75 153.062 30.2237C152.299 29.6974 151.417 29.4342 150.417 29.4342C148.68 29.4342 147.325 30.0921 146.351 31.4079C145.404 32.6974 144.93 34.5526 144.93 36.9737C144.93 38.4737 145.22 39.8289 145.799 41.0395C146.378 42.25 147.167 43.2105 148.167 43.9211C149.167 44.6053 150.299 44.9474 151.562 44.9474C153.614 44.9474 155.312 44.3684 156.654 43.2105C156.838 43.0526 156.996 43.0789 157.128 43.2895L157.483 43.8026C157.614 43.9868 157.601 44.1974 157.443 44.4342C156.628 45.3289 155.614 46.0395 154.404 46.5658C153.22 47.0658 151.943 47.3158 150.575 47.3158ZM165.377 47V34.5263H169.009V47H165.377ZM176.864 30.6974C176.864 30.9342 176.733 31.0526 176.469 31.0526H174.259C173.943 31.0526 173.64 31.0789 173.351 31.1316C173.088 31.1579 172.798 31.2368 172.483 31.3684C171.719 31.6842 170.996 32.1053 170.312 32.6316C169.627 33.1316 169.062 33.6974 168.614 34.3289L168.496 33.1842C168.706 32.5 169.048 31.8158 169.522 31.1316C169.996 30.4474 170.548 29.8158 171.18 29.2368C171.838 28.6316 172.535 28.1579 173.272 27.8158C174.035 27.4474 174.785 27.2632 175.522 27.2632C176.417 27.2632 176.864 27.3947 176.864 27.6579V30.6974ZM163.009 47C162.772 47 162.654 46.8684 162.654 46.6053V46.2105C162.654 45.9474 162.785 45.8026 163.048 45.7763L164.588 45.4211C164.956 45.3421 165.18 45.25 165.259 45.1447C165.338 45.0395 165.377 44.8026 165.377 44.4342V39.8947H169.009V44.4737C169.009 44.8158 169.048 45.0395 169.127 45.1447C169.233 45.25 169.469 45.3289 169.838 45.3816L172.285 45.8158C172.522 45.8421 172.64 45.9868 172.64 46.25V46.6447C172.64 46.8816 172.509 47 172.246 47H163.009ZM165.377 34.5263V28.7632L166.088 29.9474L162.693 29.3947C162.456 29.3684 162.338 29.2237 162.338 28.9605V28.4868C162.338 28.2763 162.469 28.1316 162.733 28.0526L167.746 27.3026C168.114 27.25 168.377 27.2763 168.535 27.3816C168.693 27.4605 168.772 27.6711 168.772 28.0132V31.9211L169.009 32.5921V34.5263H165.377ZM182.493 47V34.4868H186.124V47H182.493ZM180.124 47C179.888 47 179.769 46.8684 179.769 46.6053V46.2105C179.769 45.9474 179.901 45.8026 180.164 45.7763L181.703 45.4211C182.072 45.3421 182.295 45.25 182.374 45.1447C182.453 45.0395 182.493 44.8026 182.493 44.4342V39.8947H186.124V44.4737C186.124 44.8158 186.164 45.0395 186.243 45.1447C186.348 45.25 186.585 45.3289 186.953 45.3816L189.401 45.8158C189.638 45.8421 189.756 45.9868 189.756 46.25V46.6447C189.756 46.8816 189.624 47 189.361 47H180.124ZM182.493 34.4868V28.7237L183.203 29.9079L179.809 29.3553C179.572 29.3289 179.453 29.1842 179.453 28.9211V28.4474C179.453 28.2105 179.585 28.0789 179.848 28.0526L185.098 27.2632C185.467 27.2105 185.73 27.2368 185.888 27.3421C186.045 27.4211 186.124 27.6316 186.124 27.9737V34.4868H182.493ZM184.348 23.7895C183.69 23.7895 183.124 23.5789 182.651 23.1579C182.177 22.7368 181.94 22.2105 181.94 21.5789C181.94 20.9474 182.177 20.421 182.651 20C183.124 19.5789 183.69 19.3684 184.348 19.3684C185.032 19.3684 185.598 19.5789 186.045 20C186.519 20.421 186.756 20.9474 186.756 21.5789C186.756 22.2105 186.519 22.7368 186.045 23.1579C185.598 23.5789 185.032 23.7895 184.348 23.7895ZM200.256 47.2763C198.441 47.2763 197.072 46.7763 196.151 45.7763C195.256 44.75 194.809 43.2368 194.809 41.2368V27.9737L194.888 27.5789V23.7895C194.888 23.5526 195.019 23.3947 195.283 23.3158C195.546 23.2632 195.835 23.2237 196.151 23.1974C196.467 23.1447 196.796 23.1053 197.138 23.0789C197.48 23.0263 197.796 23 198.085 23C198.322 23 198.441 23.1316 198.441 23.3947V41.1579C198.441 42.4737 198.743 43.4211 199.348 44C199.954 44.5789 200.941 44.8684 202.309 44.8684C202.73 44.8684 203.164 44.8421 203.612 44.7895C204.085 44.7368 204.585 44.6447 205.112 44.5132C205.348 44.4605 205.48 44.5658 205.506 44.8289L205.546 45.3421C205.572 45.5526 205.48 45.75 205.269 45.9342C204.848 46.1974 204.348 46.4342 203.769 46.6447C203.191 46.8289 202.598 46.9737 201.993 47.0789C201.388 47.2105 200.809 47.2763 200.256 47.2763ZM192.322 29.5132C192.112 29.5132 192.019 29.3816 192.046 29.1184L192.204 28.2895C192.256 28.0526 192.414 27.9211 192.677 27.8947L194.888 27.5789H203.019L205.467 27.4605C205.704 27.4605 205.822 27.5921 205.822 27.8553C205.848 28.0658 205.848 28.2895 205.822 28.5263C205.822 28.7368 205.796 28.9474 205.743 29.1579C205.664 29.3947 205.506 29.5132 205.269 29.5132H192.322ZM213.539 47.3158C211.96 47.3158 210.67 46.8553 209.67 45.9342C208.67 45.0132 208.17 43.8289 208.17 42.3816C208.17 40.75 208.749 39.4868 209.907 38.5921C211.091 37.6974 212.92 37.1053 215.394 36.8158L220.881 36.1447L220.802 37.9211L216.104 38.5526C214.525 38.7895 213.381 39.1711 212.67 39.6974C211.986 40.2237 211.644 40.9737 211.644 41.9474C211.644 42.7895 211.92 43.4605 212.473 43.9605C213.052 44.4605 213.828 44.7105 214.802 44.7105C215.802 44.7105 216.683 44.5526 217.447 44.2368C218.236 43.8947 218.894 43.5132 219.42 43.0921C219.947 42.6711 220.315 42.3158 220.525 42.0263L220.999 42.5395C220.92 42.9605 220.67 43.4474 220.249 44C219.854 44.5263 219.315 45.0526 218.631 45.5789C217.973 46.0789 217.21 46.5 216.341 46.8421C215.473 47.1579 214.539 47.3158 213.539 47.3158ZM220.447 34.0526C220.447 32.5789 220.065 31.4474 219.302 30.6579C218.539 29.8421 217.46 29.4342 216.065 29.4342C215.381 29.4342 214.762 29.5132 214.21 29.6711C213.657 29.8026 213.183 30.0921 212.789 30.5395C212.42 30.9605 212.144 31.6053 211.96 32.4737L211.683 33.8553C211.604 34.0921 211.447 34.2105 211.21 34.2105H210.775C210.512 34.2105 210.368 34.0789 210.341 33.8158C210.183 33.0789 210.025 32.3553 209.868 31.6447C209.736 30.9079 209.604 30.1842 209.473 29.4737C209.42 29.2632 209.512 29.0921 209.749 28.9605C210.433 28.6447 211.354 28.2895 212.512 27.8947C213.697 27.4737 215.012 27.2632 216.46 27.2632C218.828 27.2632 220.683 27.8553 222.025 29.0395C223.394 30.2237 224.078 31.8421 224.078 33.8947V40.6053H220.447V34.0526ZM224.078 40.6053V45.8947L223.328 44.6711L226.723 45.4605C226.96 45.5395 227.078 45.6974 227.078 45.9342V46.4079C227.078 46.6447 226.947 46.7763 226.683 46.8026L224.591 47C223.407 47.1053 222.525 47.1316 221.947 47.0789C221.368 47.0526 220.986 46.8816 220.802 46.5658C220.618 46.25 220.525 45.7632 220.525 45.1053V43.0921L220.447 42.7763V40.6053H224.078ZM231.186 24.5395H234.817V43.4079L232.923 47.0395C232.87 47.1447 232.791 47.2237 232.686 47.2763C232.607 47.3289 232.502 47.3553 232.37 47.3553H231.541C231.304 47.3553 231.186 47.2237 231.186 46.9605V24.5395ZM234.146 42.5C234.857 43.3158 235.673 43.9342 236.594 44.3553C237.541 44.75 238.594 44.9474 239.752 44.9474C241.752 44.9474 243.304 44.2632 244.409 42.8947C245.515 41.5263 246.067 39.6053 246.067 37.1316C246.067 34.9474 245.594 33.2368 244.646 32C243.725 30.7632 242.449 30.1447 240.817 30.1447C239.633 30.1447 238.488 30.4342 237.383 31.0132C236.304 31.5658 235.344 32.3816 234.502 33.4605L234.107 32.5526C235.028 30.9211 236.186 29.6316 237.581 28.6842C239.002 27.7368 240.449 27.2632 241.923 27.2632C243.554 27.2632 244.949 27.6579 246.107 28.4474C247.291 29.2368 248.199 30.3553 248.831 31.8026C249.462 33.25 249.778 34.9737 249.778 36.9737C249.778 39.0526 249.396 40.8816 248.633 42.4605C247.896 44.0132 246.844 45.2237 245.475 46.0921C244.133 46.9342 242.541 47.3553 240.699 47.3553C239.041 47.3553 237.567 47 236.278 46.2895C234.988 45.5789 233.949 44.5395 233.159 43.1711L234.146 42.5ZM231.186 24.5789V18.8158L231.896 20L228.502 19.4474C228.265 19.421 228.146 19.2763 228.146 19.0132V18.5395C228.146 18.3026 228.278 18.1711 228.541 18.1447L233.791 17.3553C234.159 17.3026 234.423 17.3289 234.581 17.4342C234.738 17.5132 234.817 17.7237 234.817 18.0658V24.5789H231.186ZM255.83 47V24.5395H259.462V47H255.83ZM253.462 47C253.225 47 253.107 46.8684 253.107 46.6053V46.2105C253.107 45.9474 253.238 45.8026 253.501 45.7763L255.041 45.4211C255.409 45.3421 255.633 45.25 255.712 45.1447C255.791 45.0395 255.83 44.8026 255.83 44.4342V39.8947H259.462V44.4737C259.462 44.8158 259.501 45.0395 259.58 45.1447C259.686 45.25 259.922 45.3289 260.291 45.3816L262.738 45.8158C262.975 45.8421 263.094 45.9868 263.094 46.25V46.6447C263.094 46.8816 262.962 47 262.699 47H253.462ZM255.83 24.5789V18.8158L256.541 20L253.146 19.4474C252.909 19.421 252.791 19.2763 252.791 19.0132V18.5395C252.791 18.3026 252.922 18.1711 253.186 18.1447L258.436 17.3553C258.804 17.3026 259.067 17.3289 259.225 17.4342C259.383 17.5132 259.462 17.7237 259.462 18.0658V24.5789H255.83ZM274.855 47.3158C273.145 47.3158 271.579 46.9211 270.158 46.1316C268.737 45.3158 267.605 44.1579 266.763 42.6579C265.948 41.1316 265.54 39.3026 265.54 37.1711C265.54 35.0132 265.974 33.2105 266.842 31.7632C267.711 30.2895 268.869 29.1711 270.316 28.4079C271.763 27.6447 273.355 27.2632 275.092 27.2632C276.566 27.2632 277.908 27.6184 279.119 28.3289C280.355 29.0132 281.342 30 282.079 31.2895C282.816 32.5789 283.184 34.1184 283.184 35.9079C283.184 36.0132 283.184 36.1447 283.184 36.3026C283.184 36.4605 283.171 36.6053 283.145 36.7368C283.066 36.9737 282.908 37.0921 282.671 37.0921H268.658V35.2763H280.776L279.869 36.1447C279.869 36.0132 279.869 35.8947 279.869 35.7895C279.869 35.6579 279.869 35.5395 279.869 35.4342C279.869 34.2763 279.645 33.25 279.198 32.3553C278.75 31.4605 278.132 30.75 277.342 30.2237C276.579 29.6974 275.698 29.4342 274.698 29.4342C272.961 29.4342 271.605 30.0921 270.632 31.4079C269.684 32.6974 269.211 34.5526 269.211 36.9737C269.211 38.4737 269.5 39.8289 270.079 41.0395C270.658 42.25 271.448 43.2105 272.448 43.9211C273.448 44.6053 274.579 44.9474 275.842 44.9474C277.895 44.9474 279.592 44.3684 280.934 43.2105C281.119 43.0526 281.276 43.0789 281.408 43.2895L281.763 43.8026C281.895 43.9868 281.882 44.1974 281.724 44.4342C280.908 45.3289 279.895 46.0395 278.684 46.5658C277.5 47.0658 276.224 47.3158 274.855 47.3158Z" fill="white"/>
<defs>
<clipPath id="clip0_227_352">
<rect width="32.1507" height="32.1507" fill="white" transform="translate(26.8822 7.89471) rotate(6.75201)"/>
</clipPath>
</defs>
</svg>
