<svg width="22" height="21" viewBox="0 0 22 21" fill="none" xmlns="http://www.w3.org/2000/svg">
<path d="M5.375 17.5194L2.625 16.9194C2.375 16.8694 2.175 16.7401 2.025 16.5314C1.875 16.3228 1.81667 16.0938 1.85 15.8444L2.125 13.0194L0.25 10.8694C0.0833333 10.6861 0 10.4694 0 10.2194C0 9.96944 0.0833333 9.75278 0.25 9.56944L2.125 7.41944L1.85 4.59444C1.81667 4.34444 1.875 4.11511 2.025 3.90644C2.175 3.69778 2.375 3.56878 2.625 3.51944L5.375 2.91944L6.825 0.469444C6.95833 0.252778 7.14167 0.111111 7.375 0.0444445C7.60833 -0.0222222 7.84167 -0.0138889 8.075 0.0694444L10.675 1.16944L13.275 0.0694444C13.5083 -0.0138889 13.7417 -0.0222222 13.975 0.0444445C14.2083 0.111111 14.3917 0.252778 14.525 0.469444L15.975 2.91944L18.725 3.51944C18.975 3.56944 19.175 3.69844 19.325 3.90644C19.475 4.11444 19.5333 4.34378 19.5 4.59444L19.225 7.41944L21.1 9.56944C21.2667 9.75278 21.35 9.96944 21.35 10.2194C21.35 10.4694 21.2667 10.6861 21.1 10.8694L19.225 13.0194L19.5 15.8444C19.5333 16.0944 19.475 16.3238 19.325 16.5324C19.175 16.7411 18.975 16.8701 18.725 16.9194L15.975 17.5194L14.525 19.9694C14.3917 20.1861 14.2083 20.3278 13.975 20.3944C13.7417 20.4611 13.5083 20.4528 13.275 20.3694L10.675 19.2694L8.075 20.3694C7.84167 20.4528 7.60833 20.4611 7.375 20.3944C7.14167 20.3278 6.95833 20.1861 6.825 19.9694L5.375 17.5194ZM8.925 13.0694C9.10833 13.2528 9.34167 13.3444 9.625 13.3444C9.90833 13.3444 10.1417 13.2528 10.325 13.0694L14.575 8.81944C14.775 8.61944 14.875 8.38178 14.875 8.10644C14.875 7.83111 14.775 7.59378 14.575 7.39444C14.375 7.19444 14.1373 7.09444 13.862 7.09444C13.5867 7.09444 13.3493 7.19444 13.15 7.39444L9.625 10.9194L8.175 9.49444C7.975 9.31111 7.73733 9.22344 7.462 9.23144C7.18667 9.23944 6.95767 9.33544 6.775 9.51944C6.59167 9.70278 6.5 9.93611 6.5 10.2194C6.5 10.5028 6.59167 10.7361 6.775 10.9194L8.925 13.0694ZM8.125 18.1694L10.675 17.0694L13.275 18.1694L14.675 15.7694L17.425 15.1194L17.175 12.3194L19.025 10.2194L17.175 8.06944L17.425 5.26944L14.675 4.66944L13.225 2.26944L10.675 3.36944L8.075 2.26944L6.675 4.66944L3.925 5.26944L4.175 8.06944L2.325 10.2194L4.175 12.3194L3.925 15.1694L6.675 15.7694L8.125 18.1694Z" fill="white"/>
</svg>
