<svg width="750" height="1000" viewBox="0 0 1000 1000" fill="none" xmlns="http://www.w3.org/2000/svg">
    <rect width="1000" height="1000" rx="200" fill="#1A1C21"/>
    <path d="M876.143 772.268C876.143 785.946 864.5 797.589 850.821 797.589C848.304 797.589 845.768 797.071 843.75 796.536C839.178 795.518 835.143 793.018 832.107 789.464C750.643 703.946 652.393 634.089 542.607 585.982C528.928 579.91 514.697 574.339 500.554 568.75C486.357 574.339 472.196 579.91 458.036 585.982C349.214 634.071 251.536 702.928 170.018 788.446C165.482 794.036 158.375 797.589 150.803 797.589C136.607 797.589 125 785.946 125 772.268C125 610.786 165.5 464.518 231.268 358.196C299.625 248.357 394.768 180 500.554 180C606.893 180 701.553 248.339 769.875 358.196C835.643 464.518 876.143 610.786 876.143 772.268ZM426.643 544.482C392.714 534.857 357.803 527.25 322.839 522.196C284.892 567.75 251.964 616.857 224.143 669.518C285.911 619.893 353.75 577.375 426.643 544.482ZM500.518 514.625C545.089 498.928 591.661 486.268 639.268 477.143C597.232 432.589 550.678 392.625 500.518 357.179C450.428 392.607 403.839 432.589 361.839 477.143C409.411 486.268 455.982 498.928 500.518 514.625ZM699.482 467.536C721.214 464.982 743.5 462.964 765.786 461.946C754.143 434.107 740.982 408.303 726.268 385C699.482 341.464 668.589 306.035 634.196 279.714C603.821 293.91 574.446 310.089 546.089 327.303C594.178 362.232 638.232 401.714 678.732 444.75C685.786 452.357 692.375 459.946 699.482 467.536ZM785.036 512.089C769.357 512.571 753.661 513.625 737.964 514.643C765.803 551.089 791.107 590.054 813.875 630.054C806.804 588.5 797.178 549.018 785.036 512.089ZM678.732 521.714C643.303 527.268 608.357 534.857 574.447 544.482C647.339 577.892 715.661 619.893 776.911 669.518C749.089 617.375 716.196 567.75 678.732 521.714ZM263.143 514.625C247.446 513.607 232.25 512.572 216.054 512.072C203.911 549 194.285 588.482 187.214 630.018C209.982 590.035 235.303 551.071 263.143 514.625ZM301.607 467.536C308.678 459.928 315.286 452.339 322.357 444.768C362.857 401.732 407.393 362.25 454.964 327.321C426.643 310.107 397.286 293.928 366.893 279.732C332.464 306.071 301.607 341.5 274.786 385.018C260.107 408.321 246.911 434.125 235.304 461.964C257.554 462.982 279.839 465 301.607 467.536ZM500.518 295.946C526.857 278.714 554.196 263.035 582.018 248.857C556.214 237.214 528.893 231.143 500.518 231.143C472.643 231.143 444.857 237.214 419.036 248.857C446.875 263.035 474.178 278.714 500.518 295.946Z" fill="#52E8CD"/>
    </svg>
    